<?xml version="1.0" encoding="UTF-8" standalone="no"?>
<!DOCTYPE svg PUBLIC "-//W3C//DTD SVG 1.1//EN"
 "http://www.w3.org/Graphics/SVG/1.1/DTD/svg11.dtd">
<!-- Generated by graphviz version 2.50.0 (0)
 -->
<!-- Title: Tree Pages: 1 -->
<svg width="514pt" height="491pt"
 viewBox="0.00 0.00 514.00 491.00" xmlns="http://www.w3.org/2000/svg" xmlns:xlink="http://www.w3.org/1999/xlink">
<g id="graph0" class="graph" transform="scale(1 1) rotate(0) translate(4 487)">
<title>Tree</title>
<polygon fill="white" stroke="transparent" points="-4,4 -4,-487 510,-487 510,4 -4,4"/>
<!-- 0 -->
<g id="node1" class="node">
<title>0</title>
<polygon fill="#e99458" stroke="black" points="347,-483 171,-483 171,-430 347,-430 347,-483"/>
<text text-anchor="middle" x="259" y="-467.8" font-family="Helvetica,sans-Serif" font-size="14.00">SASA &lt;= &#45;0.705</text>
<text text-anchor="middle" x="259" y="-452.8" font-family="Helvetica,sans-Serif" font-size="14.00">samples = 100.0%</text>
<text text-anchor="middle" x="259" y="-437.8" font-family="Helvetica,sans-Serif" font-size="14.00">value = [0.867, 0.133]</text>
</g>
<!-- 1 -->
<g id="node2" class="node">
<title>1</title>
<polygon fill="#399de5" stroke="black" points="241,-386.5 101,-386.5 101,-348.5 241,-348.5 241,-386.5"/>
<text text-anchor="middle" x="171" y="-371.3" font-family="Helvetica,sans-Serif" font-size="14.00">samples = 10.2%</text>
<text text-anchor="middle" x="171" y="-356.3" font-family="Helvetica,sans-Serif" font-size="14.00">value = [0.0, 1.0]</text>
</g>
<!-- 0&#45;&gt;1 -->
<g id="edge1" class="edge">
<title>0&#45;&gt;1</title>
<path fill="none" stroke="black" d="M233.07,-429.87C221.51,-418.44 207.93,-405.01 196.43,-393.64"/>
<polygon fill="black" stroke="black" points="198.79,-391.05 189.21,-386.51 193.86,-396.03 198.79,-391.05"/>
<text text-anchor="middle" x="189.36" y="-407.81" font-family="Helvetica,sans-Serif" font-size="14.00">True</text>
</g>
<!-- 2 -->
<g id="node3" class="node">
<title>2</title>
<polygon fill="#e68641" stroke="black" points="435,-394 259,-394 259,-341 435,-341 435,-394"/>
<text text-anchor="middle" x="347" y="-378.8" font-family="Helvetica,sans-Serif" font-size="14.00">H &lt;= &#45;1.163</text>
<text text-anchor="middle" x="347" y="-363.8" font-family="Helvetica,sans-Serif" font-size="14.00">samples = 89.8%</text>
<text text-anchor="middle" x="347" y="-348.8" font-family="Helvetica,sans-Serif" font-size="14.00">value = [0.962, 0.038]</text>
</g>
<!-- 0&#45;&gt;2 -->
<g id="edge2" class="edge">
<title>0&#45;&gt;2</title>
<path fill="none" stroke="black" d="M284.93,-429.87C293.98,-420.92 304.26,-410.75 313.82,-401.3"/>
<polygon fill="black" stroke="black" points="316.3,-403.77 320.95,-394.25 311.38,-398.79 316.3,-403.77"/>
<text text-anchor="middle" x="320.81" y="-415.55" font-family="Helvetica,sans-Serif" font-size="14.00">False</text>
</g>
<!-- 3 -->
<g id="node4" class="node">
<title>3</title>
<polygon fill="#f2be99" stroke="black" points="347.5,-305 168.5,-305 168.5,-252 347.5,-252 347.5,-305"/>
<text text-anchor="middle" x="258" y="-289.8" font-family="Helvetica,sans-Serif" font-size="14.00">Number of H &lt;= 0.243</text>
<text text-anchor="middle" x="258" y="-274.8" font-family="Helvetica,sans-Serif" font-size="14.00">samples = 11.8%</text>
<text text-anchor="middle" x="258" y="-259.8" font-family="Helvetica,sans-Serif" font-size="14.00">value = [0.674, 0.326]</text>
</g>
<!-- 2&#45;&gt;3 -->
<g id="edge3" class="edge">
<title>2&#45;&gt;3</title>
<path fill="none" stroke="black" d="M320.78,-340.87C311.63,-331.92 301.22,-321.75 291.56,-312.3"/>
<polygon fill="black" stroke="black" points="293.94,-309.74 284.34,-305.25 289.05,-314.74 293.94,-309.74"/>
</g>
<!-- 10 -->
<g id="node11" class="node">
<title>10</title>
<polygon fill="#e58139" stroke="black" points="506,-297.5 366,-297.5 366,-259.5 506,-259.5 506,-297.5"/>
<text text-anchor="middle" x="436" y="-282.3" font-family="Helvetica,sans-Serif" font-size="14.00">samples = 78.0%</text>
<text text-anchor="middle" x="436" y="-267.3" font-family="Helvetica,sans-Serif" font-size="14.00">value = [1.0, 0.0]</text>
</g>
<!-- 2&#45;&gt;10 -->
<g id="edge10" class="edge">
<title>2&#45;&gt;10</title>
<path fill="none" stroke="black" d="M373.22,-340.87C384.91,-329.44 398.65,-316.01 410.28,-304.64"/>
<polygon fill="black" stroke="black" points="412.88,-307 417.58,-297.51 407.98,-301.99 412.88,-307"/>
</g>
<!-- 4 -->
<g id="node5" class="node">
<title>4</title>
<polygon fill="#e78a47" stroke="black" points="270.5,-216 45.5,-216 45.5,-163 270.5,-163 270.5,-216"/>
<text text-anchor="middle" x="158" y="-200.8" font-family="Helvetica,sans-Serif" font-size="14.00">H number w chains &lt;= 0.209</text>
<text text-anchor="middle" x="158" y="-185.8" font-family="Helvetica,sans-Serif" font-size="14.00">samples = 8.3%</text>
<text text-anchor="middle" x="158" y="-170.8" font-family="Helvetica,sans-Serif" font-size="14.00">value = [0.935, 0.065]</text>
</g>
<!-- 3&#45;&gt;4 -->
<g id="edge4" class="edge">
<title>3&#45;&gt;4</title>
<path fill="none" stroke="black" d="M228.54,-251.87C218.15,-242.83 206.34,-232.55 195.39,-223.03"/>
<polygon fill="black" stroke="black" points="197.44,-220.17 187.6,-216.25 192.84,-225.45 197.44,-220.17"/>
</g>
<!-- 9 -->
<g id="node10" class="node">
<title>9</title>
<polygon fill="#399de5" stroke="black" points="429,-208.5 289,-208.5 289,-170.5 429,-170.5 429,-208.5"/>
<text text-anchor="middle" x="359" y="-193.3" font-family="Helvetica,sans-Serif" font-size="14.00">samples = 3.5%</text>
<text text-anchor="middle" x="359" y="-178.3" font-family="Helvetica,sans-Serif" font-size="14.00">value = [0.0, 1.0]</text>
</g>
<!-- 3&#45;&gt;9 -->
<g id="edge9" class="edge">
<title>3&#45;&gt;9</title>
<path fill="none" stroke="black" d="M287.76,-251.87C301.15,-240.33 316.91,-226.76 330.19,-215.32"/>
<polygon fill="black" stroke="black" points="332.8,-217.68 338.1,-208.51 328.23,-212.38 332.8,-217.68"/>
</g>
<!-- 5 -->
<g id="node6" class="node">
<title>5</title>
<polygon fill="#e58139" stroke="black" points="140,-119.5 0,-119.5 0,-81.5 140,-81.5 140,-119.5"/>
<text text-anchor="middle" x="70" y="-104.3" font-family="Helvetica,sans-Serif" font-size="14.00">samples = 7.1%</text>
<text text-anchor="middle" x="70" y="-89.3" font-family="Helvetica,sans-Serif" font-size="14.00">value = [1.0, 0.0]</text>
</g>
<!-- 4&#45;&gt;5 -->
<g id="edge5" class="edge">
<title>4&#45;&gt;5</title>
<path fill="none" stroke="black" d="M132.07,-162.87C120.51,-151.44 106.93,-138.01 95.43,-126.64"/>
<polygon fill="black" stroke="black" points="97.79,-124.05 88.21,-119.51 92.86,-129.03 97.79,-124.05"/>
</g>
<!-- 6 -->
<g id="node7" class="node">
<title>6</title>
<polygon fill="#9ccef2" stroke="black" points="334,-127 158,-127 158,-74 334,-74 334,-127"/>
<text text-anchor="middle" x="246" y="-111.8" font-family="Helvetica,sans-Serif" font-size="14.00">symmetry &lt;= 0.697</text>
<text text-anchor="middle" x="246" y="-96.8" font-family="Helvetica,sans-Serif" font-size="14.00">samples = 1.2%</text>
<text text-anchor="middle" x="246" y="-81.8" font-family="Helvetica,sans-Serif" font-size="14.00">value = [0.333, 0.667]</text>
</g>
<!-- 4&#45;&gt;6 -->
<g id="edge6" class="edge">
<title>4&#45;&gt;6</title>
<path fill="none" stroke="black" d="M183.93,-162.87C192.98,-153.92 203.26,-143.75 212.82,-134.3"/>
<polygon fill="black" stroke="black" points="215.3,-136.77 219.95,-127.25 210.38,-131.79 215.3,-136.77"/>
</g>
<!-- 7 -->
<g id="node8" class="node">
<title>7</title>
<polygon fill="#e58139" stroke="black" points="237,-38 97,-38 97,0 237,0 237,-38"/>
<text text-anchor="middle" x="167" y="-22.8" font-family="Helvetica,sans-Serif" font-size="14.00">samples = 0.4%</text>
<text text-anchor="middle" x="167" y="-7.8" font-family="Helvetica,sans-Serif" font-size="14.00">value = [1.0, 0.0]</text>
</g>
<!-- 6&#45;&gt;7 -->
<g id="edge7" class="edge">
<title>6&#45;&gt;7</title>
<path fill="none" stroke="black" d="M220.57,-73.91C211.55,-64.83 201.4,-54.62 192.38,-45.54"/>
<polygon fill="black" stroke="black" points="194.66,-42.87 185.12,-38.24 189.69,-47.8 194.66,-42.87"/>
</g>
<!-- 8 -->
<g id="node9" class="node">
<title>8</title>
<polygon fill="#399de5" stroke="black" points="395,-38 255,-38 255,0 395,0 395,-38"/>
<text text-anchor="middle" x="325" y="-22.8" font-family="Helvetica,sans-Serif" font-size="14.00">samples = 0.8%</text>
<text text-anchor="middle" x="325" y="-7.8" font-family="Helvetica,sans-Serif" font-size="14.00">value = [0.0, 1.0]</text>
</g>
<!-- 6&#45;&gt;8 -->
<g id="edge8" class="edge">
<title>6&#45;&gt;8</title>
<path fill="none" stroke="black" d="M271.43,-73.91C280.45,-64.83 290.6,-54.62 299.62,-45.54"/>
<polygon fill="black" stroke="black" points="302.31,-47.8 306.88,-38.24 297.34,-42.87 302.31,-47.8"/>
</g>
</g>
</svg>
